<?xml version="1.0" encoding="utf-8"?>
<!-- Generator: Adobe Illustrator 16.0.0, SVG Export Plug-In . SVG Version: 6.00 Build 0)  -->
<!DOCTYPE svg PUBLIC "-//W3C//DTD SVG 1.1//EN" "http://www.w3.org/Graphics/SVG/1.1/DTD/svg11.dtd">
<svg version="1.1" id="Layer_1" xmlns="http://www.w3.org/2000/svg" xmlns:xlink="http://www.w3.org/1999/xlink" x="0px" y="0px"
	 width="112px" height="20px" viewBox="0 0 112 20" enable-background="new 0 0 112 20" xml:space="preserve">
<title>logo</title>
<g>
	<rect x="34.8" y="6.2" fill="#E20917" width="2.5" height="9.7"/>
	<polygon fill="#E20917" points="43.4,13 41.2,6.2 38.4,6.2 42.1,15.9 44.9,15.9 48.6,6.2 45.8,6.2 	"/>
	<path fill="#E20917" d="M74.8,7.8V6.2h-2.5v9.7h2.5V11.3c0-2.1,1.601-2.6,2.9-2.5V6C76.5,6,75.3,6.5,74.8,7.8z"/>
	<path fill="#E20917" d="M86.1,6.2v1.1C85.4,6.5,84.299,5.9,82.9,5.9C80.3,5.9,78.3,8.2,78.3,11c0,2.9,2.2,5.1,4.601,5.1
		c1.398,0,2.5-0.5,3.199-1.399v1.1h2.5V6h-2.5V6.2z M83.4,13.7c-1.5,0-2.7-1.101-2.7-2.7s1.1-2.7,2.7-2.7C84.9,8.3,86.1,9.4,86.1,11
		C86.1,12.7,85,13.7,83.4,13.7z"/>
	<path fill="#E20917" d="M65.4,6C62.5,6,60.3,8.3,60.3,11.1c0,2.9,2.3,5.101,5.101,5.101c2.899,0,5.199-2.3,5.199-5.101
		C70.6,8.1,68.3,6,65.4,6z M65.4,13.7C64,13.7,62.8,12.6,62.8,11c0-1.5,1.101-2.7,2.601-2.7S68,9.4,68,11
		C68.1,12.6,66.9,13.7,65.4,13.7z"/>
	<path fill="#E20917" d="M29.8,2.4V6.8C29,6.3,28,6,26.9,6c-2.9,0-5.1,2.3-5.1,5.1c0,2.9,2.3,5.101,5.1,5.101c1,0,2.1-0.3,2.9-0.8
		V16h2.5V2.5h-2.5V2.4z M26.9,13.7c-1.4,0-2.6-1.101-2.6-2.7c0-1.5,1.1-2.7,2.6-2.7c1.4,0,2.6,1.101,2.6,2.7S28.4,13.7,26.9,13.7z"
		/>
	<path fill="#E20917" d="M54,6c-2.9,0-5.1,2.3-5.1,5.1c0,2.9,2.3,5.101,5.1,5.101c2.9,0,5.2-2.3,5.2-5.101C59.1,8.1,56.8,6,54,6z
		 M54,13.7c-1.4,0-2.6-1.101-2.6-2.7c0-1.5,1.1-2.7,2.6-2.7S56.6,9.4,56.6,11S55.5,13.7,54,13.7z"/>
	<path fill="#E20917" d="M89.799,14.9c0-0.601,0.5-1,1-1c0.602,0,1,0.5,1,1c0,0.6-0.5,1-1,1C90.4,16.1,89.799,15.6,89.799,14.9z"/>
	<path fill="#E20917" d="M92.4,11c0-2.9,2.199-5.1,5.1-5.1c2,0,3.5,1,4.199,2.6l-1,0.6C100.199,8,98.9,7.2,97.5,7.2
		c-2.201,0-3.801,1.6-3.801,3.8s1.6,3.8,3.801,3.8c1.4,0,2.699-0.8,3.299-1.899l1,0.6C101,15,99.299,16,97.5,16
		C94.6,16.1,92.4,13.9,92.4,11z"/>
	<path fill="#E20917" d="M112,9.9v6h-1.201v-6c0-1.801-0.898-2.7-2.699-2.7s-3.1,1-3.1,3.6V15.9h-1.201V2.4H105V7.8
		c0.699-1.2,1.9-1.8,3.299-1.8C110.6,6,112,7.5,112,9.9z"/>
	<path fill="#E20917" d="M19.3,13.8L10,10l9.3-3.8C17.8,2.6,14.2,0,10,0C4.4,0,0,4.5,0,10s4.5,10,10,10C14.2,20,17.7,17.4,19.3,13.8
		z"/>
</g>
</svg>
